<svg width="17" height="17" viewBox="0 0 17 17" fill="none" xmlns="http://www.w3.org/2000/svg">
<g clip-path="url(#clip0_363_1870)">
<path d="M4.31668 7.95357C4.27265 7.66983 4.24981 7.37915 4.24981 7.08317C4.24981 3.95356 6.80355 1.4165 9.95376 1.4165C13.104 1.4165 15.6577 3.95356 15.6577 7.08317C15.6577 7.79014 15.5274 8.46687 15.2893 9.09094C15.2399 9.22056 15.2152 9.28536 15.2039 9.33596C15.1928 9.38609 15.1885 9.42136 15.1873 9.4727C15.1861 9.52451 15.1931 9.58159 15.2072 9.69573L15.4923 12.0121C15.5232 12.2629 15.5386 12.3883 15.4969 12.4794C15.4604 12.5593 15.3955 12.6227 15.3148 12.6574C15.2227 12.697 15.0977 12.6787 14.8477 12.642L12.5915 12.3113C12.4737 12.294 12.4148 12.2854 12.3611 12.2857C12.3081 12.286 12.2713 12.2899 12.2194 12.3009C12.1669 12.3119 12.0998 12.337 11.9657 12.3873C11.34 12.6216 10.662 12.7498 9.95376 12.7498C9.65754 12.7498 9.3666 12.7274 9.08255 12.6842M5.40554 15.5832C7.50567 15.5832 9.20817 13.8389 9.20817 11.6873C9.20817 9.53573 7.50567 7.7915 5.40554 7.7915C3.3054 7.7915 1.60291 9.53573 1.60291 11.6873C1.60291 12.1198 1.6717 12.5359 1.79868 12.9246C1.85236 13.0889 1.8792 13.1711 1.88801 13.2272C1.89721 13.2858 1.89882 13.3187 1.89539 13.3779C1.89211 13.4347 1.87792 13.4988 1.84954 13.627L1.4165 15.5832L3.53782 15.2935C3.65361 15.2776 3.7115 15.2697 3.76206 15.2701C3.81529 15.2704 3.84354 15.2733 3.89575 15.2837C3.94533 15.2936 4.01903 15.3196 4.16645 15.3717C4.55484 15.5087 4.9717 15.5832 5.40554 15.5832Z" stroke="#98A6A0" stroke-width="1.4" stroke-linecap="round" stroke-linejoin="round"/>
</g>
<defs>
<clipPath id="clip0_363_1870">
<rect width="17" height="17" fill="white"/>
</clipPath>
</defs>
</svg>
