<svg width="42" height="42" viewBox="0 0 42 42" fill="none" xmlns="http://www.w3.org/2000/svg">
<circle cx="21" cy="21" r="20.5" stroke="white" stroke-opacity="0.29"/>
<path d="M24.642 29.1068H16.0189C15.4553 29.1068 15.1735 29.1068 15.043 28.9953C14.9297 28.8986 14.8697 28.7535 14.8813 28.6051C14.8948 28.434 15.0941 28.2347 15.4926 27.8362L23.4034 19.9254C23.7718 19.557 23.956 19.3728 24.1685 19.3037C24.3553 19.243 24.5566 19.243 24.7435 19.3037C24.9559 19.3728 25.1401 19.557 25.5085 19.9254L29.1077 23.5246V24.6411M24.642 29.1068C26.2052 29.1068 26.9868 29.1068 27.5838 28.8026C28.109 28.535 28.536 28.108 28.8035 27.5828C29.1077 26.9858 29.1077 26.2042 29.1077 24.6411M24.642 29.1068H16.827C15.2639 29.1068 14.4823 29.1068 13.8853 28.8026C13.3601 28.535 12.9331 28.108 12.6655 27.5828C12.3613 26.9858 12.3613 26.2042 12.3613 24.6411V16.8261C12.3613 15.2629 12.3613 14.4813 12.6655 13.8843C12.9331 13.3591 13.3601 12.9321 13.8853 12.6646C14.4823 12.3604 15.2639 12.3604 16.827 12.3604H24.642C26.2052 12.3604 26.9868 12.3604 27.5838 12.6646C28.109 12.9321 28.536 13.3591 28.8035 13.8843C29.1077 14.4813 29.1077 15.2629 29.1077 16.8261V24.6411M19.339 17.4773C19.339 18.505 18.5059 19.338 17.4783 19.338C16.4506 19.338 15.6176 18.505 15.6176 17.4773C15.6176 16.4497 16.4506 15.6166 17.4783 15.6166C18.5059 15.6166 19.339 16.4497 19.339 17.4773Z" stroke="#DDDDDE" stroke-width="1.6" stroke-linecap="round" stroke-linejoin="round"/>
</svg>
