<svg width="29" height="28" viewBox="0 0 29 28" fill="none" xmlns="http://www.w3.org/2000/svg">
<path d="M15.4823 5.4777C15.131 5.21514 14.9553 5.08386 14.7613 5.03339C14.5902 4.98887 14.4098 4.98887 14.2387 5.03339C14.0447 5.08386 13.869 5.21514 13.5177 5.4777L6.73539 10.5464C6.28202 10.8852 6.05534 11.0546 5.89203 11.2668C5.74737 11.4547 5.6396 11.6664 5.57403 11.8915C5.5 12.1456 5.5 12.4216 5.5 12.9734V19.9252C5.5 21.0015 5.5 21.5396 5.71799 21.9507C5.90973 22.3123 6.21569 22.6063 6.59202 22.7905C7.01984 23 7.5799 23 8.7 23H10.7C10.98 23 11.12 23 11.227 22.9476C11.3211 22.9016 11.3976 22.8281 11.4455 22.7377C11.5 22.6349 11.5 22.5004 11.5 22.2313V15.8896C11.5 15.3515 11.5 15.0824 11.609 14.8769C11.7049 14.6961 11.8578 14.5491 12.046 14.457C12.2599 14.3522 12.5399 14.3522 13.1 14.3522H15.9C16.4601 14.3522 16.7401 14.3522 16.954 14.457C17.1422 14.5491 17.2951 14.6961 17.391 14.8769C17.5 15.0824 17.5 15.3515 17.5 15.8896V22.2313C17.5 22.5004 17.5 22.6349 17.5545 22.7377C17.6024 22.8281 17.6789 22.9016 17.773 22.9476C17.88 23 18.02 23 18.3 23H20.3C21.4201 23 21.9802 23 22.408 22.7905C22.7843 22.6063 23.0903 22.3123 23.282 21.9507C23.5 21.5396 23.5 21.0015 23.5 19.9252V12.9734C23.5 12.4216 23.5 12.1456 23.426 11.8915C23.3604 11.6664 23.2526 11.4547 23.108 11.2668C22.9447 11.0546 22.718 10.8852 22.2646 10.5464L15.4823 5.4777Z" stroke="white" stroke-width="1.5" stroke-linecap="round" stroke-linejoin="round"/>
</svg>
