<svg width="19" height="19" viewBox="0 0 19 19" fill="none" xmlns="http://www.w3.org/2000/svg">
<path d="M9.66613 15.5358C8.00313 15.5358 6.58935 14.9453 5.42479 13.7644C4.26024 12.5835 3.67821 11.1502 3.67871 9.46433C3.67871 8.21463 4.03122 7.06738 4.73624 6.02259C5.44176 4.97679 6.44216 4.22469 7.73743 3.7663C7.89011 3.71216 8.02383 3.69799 8.13859 3.7238C8.25335 3.7496 8.3484 3.79994 8.42374 3.87482C8.49908 3.94971 8.54698 4.04584 8.56744 4.16322C8.5874 4.2811 8.57168 4.40481 8.52029 4.53433C8.42349 4.77567 8.35314 5.02131 8.30923 5.27125C8.26533 5.52119 8.24362 5.78049 8.24412 6.04915C8.24412 7.40157 8.70889 8.54932 9.63844 9.49241C10.5685 10.435 11.7004 10.9063 13.0341 10.9063C13.3823 10.9063 13.7009 10.8689 13.9898 10.794C14.2792 10.7191 14.5257 10.6584 14.7292 10.6118C14.838 10.5916 14.9376 10.5941 15.0279 10.6194C15.1182 10.6447 15.191 10.6892 15.2464 10.753C15.3038 10.8162 15.3427 10.8942 15.3632 10.9867C15.3836 11.0793 15.3719 11.1848 15.328 11.3032C14.9712 12.5428 14.272 13.558 13.2301 14.3488C12.1883 15.1396 11.0003 15.5353 9.66613 15.5358Z" fill="white"/>
</svg>
