<svg width="22" height="21" viewBox="0 0 22 21" fill="none" xmlns="http://www.w3.org/2000/svg">
<path d="M11 11.375C11.4832 11.375 11.875 10.9832 11.875 10.5C11.875 10.0168 11.4832 9.625 11 9.625C10.5168 9.625 10.125 10.0168 10.125 10.5C10.125 10.9832 10.5168 11.375 11 11.375Z" stroke="#8E9FC7" stroke-width="2" stroke-linecap="round" stroke-linejoin="round"/>
<path d="M17.125 11.375C17.6082 11.375 18 10.9832 18 10.5C18 10.0168 17.6082 9.625 17.125 9.625C16.6418 9.625 16.25 10.0168 16.25 10.5C16.25 10.9832 16.6418 11.375 17.125 11.375Z" stroke="#8E9FC7" stroke-width="2" stroke-linecap="round" stroke-linejoin="round"/>
<path d="M4.875 11.375C5.35825 11.375 5.75 10.9832 5.75 10.5C5.75 10.0168 5.35825 9.625 4.875 9.625C4.39175 9.625 4 10.0168 4 10.5C4 10.9832 4.39175 11.375 4.875 11.375Z" stroke="#8E9FC7" stroke-width="2" stroke-linecap="round" stroke-linejoin="round"/>
</svg>
