<svg width="17" height="17" viewBox="0 0 17 17" fill="none" xmlns="http://www.w3.org/2000/svg">
<path d="M7.99172 2.44623C8.15498 2.11548 8.23661 1.95011 8.34742 1.89727C8.44384 1.8513 8.55586 1.8513 8.65227 1.89727C8.76309 1.95011 8.84472 2.11548 9.00798 2.44623L10.5569 5.58412C10.6051 5.68177 10.6292 5.73059 10.6644 5.7685C10.6956 5.80206 10.733 5.82925 10.7745 5.84857C10.8214 5.87039 10.8753 5.87826 10.9831 5.89401L14.4477 6.40042C14.8125 6.45375 14.995 6.48041 15.0794 6.56952C15.1528 6.64706 15.1874 6.75359 15.1734 6.85947C15.1573 6.98117 15.0253 7.1098 14.7611 7.36707L12.255 9.80801C12.1769 9.8841 12.1378 9.92215 12.1126 9.96742C12.0903 10.0075 12.076 10.0515 12.0705 10.0971C12.0642 10.1485 12.0735 10.2023 12.0919 10.3097L12.6832 13.7575C12.7456 14.1211 12.7768 14.3029 12.7182 14.4108C12.6672 14.5047 12.5765 14.5705 12.4715 14.59C12.3508 14.6124 12.1875 14.5265 11.861 14.3548L8.7636 12.7259C8.6671 12.6752 8.61885 12.6498 8.56801 12.6398C8.523 12.631 8.4767 12.631 8.43169 12.6398C8.38085 12.6498 8.3326 12.6752 8.23609 12.7259L5.13874 14.3548C4.81219 14.5265 4.64892 14.6124 4.52819 14.59C4.42315 14.5705 4.33252 14.5047 4.28153 14.4108C4.22292 14.3029 4.25411 14.1211 4.31647 13.7575L4.9078 10.3097C4.92623 10.2023 4.93545 10.1485 4.92921 10.0971C4.92369 10.0515 4.90937 10.0075 4.88706 9.96742C4.86185 9.92215 4.82279 9.8841 4.74467 9.80801L2.23857 7.36707C1.97443 7.1098 1.84236 6.98117 1.82629 6.85947C1.81231 6.75359 1.84685 6.64706 1.92031 6.56952C2.00473 6.48041 2.18715 6.45375 2.55199 6.40042L6.01664 5.89401C6.12439 5.87826 6.17826 5.87039 6.22518 5.84857C6.26672 5.82925 6.30412 5.80206 6.3353 5.7685C6.37052 5.73059 6.39462 5.68177 6.44282 5.58412L7.99172 2.44623Z" stroke="#98A6A0" stroke-width="1.2" stroke-linecap="round" stroke-linejoin="round"/>
</svg>
