<svg width="17" height="17" viewBox="0 0 17 17" fill="none" xmlns="http://www.w3.org/2000/svg">
<path d="M14.7272 8.93039C14.9001 8.78218 14.9866 8.70807 15.0183 8.61988C15.0461 8.54248 15.0461 8.45781 15.0183 8.38041C14.9866 8.29222 14.9001 8.21812 14.7272 8.0699L8.72712 2.92696C8.42945 2.67182 8.28062 2.54425 8.15462 2.54112C8.04511 2.53841 7.9405 2.58652 7.8713 2.67143C7.79167 2.76914 7.79167 2.96516 7.79167 3.3572V6.39968C6.2796 6.66421 4.89571 7.43039 3.86729 8.5808C2.74608 9.83501 2.12587 11.4581 2.125 13.1404V13.5739C2.86828 12.6785 3.79632 11.9543 4.84554 11.451C5.77058 11.0072 6.77054 10.7444 7.79167 10.6751V13.6431C7.79167 14.0351 7.79167 14.2312 7.8713 14.3289C7.9405 14.4138 8.04511 14.4619 8.15462 14.4592C8.28062 14.456 8.42945 14.3285 8.72712 14.0733L14.7272 8.93039Z" stroke="#98A6A0" stroke-width="1.3" stroke-linecap="round" stroke-linejoin="round"/>
</svg>
