<svg width="16" height="16" viewBox="0 0 16 16" fill="none" xmlns="http://www.w3.org/2000/svg">
<path d="M7.84936 12.375C8.01283 12.375 8.1696 12.4408 8.28519 12.5581C8.40078 12.6753 8.46571 12.8342 8.46571 13V13.625C8.46571 13.7908 8.40078 13.9497 8.28519 14.0669C8.1696 14.1842 8.01283 14.25 7.84936 14.25C7.6859 14.25 7.52912 14.1842 7.41354 14.0669C7.29795 13.9497 7.23301 13.7908 7.23301 13.625V13C7.23301 12.8342 7.29795 12.6753 7.41354 12.5581C7.52912 12.4408 7.6859 12.375 7.84936 12.375ZM11.7718 11.0938L12.2076 11.5356C12.3199 11.6535 12.382 11.8114 12.3806 11.9753C12.3792 12.1391 12.3144 12.2959 12.2001 12.4118C12.0858 12.5276 11.9312 12.5934 11.7696 12.5948C11.608 12.5962 11.4523 12.5332 11.3361 12.4194L10.9003 11.9775C10.788 11.8596 10.7259 11.7017 10.7273 11.5379C10.7287 11.374 10.7935 11.2172 10.9078 11.1014C11.0221 10.9855 11.1767 10.9198 11.3383 10.9183C11.4999 10.9169 11.6556 10.9799 11.7718 11.0938ZM3.9269 11.0938C4.03781 10.9817 4.18665 10.9166 4.34317 10.9117C4.49969 10.9069 4.65217 10.9626 4.76962 11.0677C4.88708 11.1727 4.96071 11.3191 4.97556 11.4772C4.99041 11.6352 4.94536 11.7931 4.84958 11.9188L4.79842 11.9775L4.36266 12.4194C4.25174 12.5315 4.10291 12.5965 3.94638 12.6014C3.78986 12.6062 3.63739 12.5505 3.51993 12.4455C3.40248 12.3404 3.32885 12.194 3.314 12.036C3.29915 11.8779 3.34419 11.72 3.43998 11.5944L3.49114 11.5356L3.9269 11.0938ZM7.84936 4.25C8.83016 4.25 9.77079 4.64509 10.4643 5.34835C11.1579 6.05161 11.5475 7.00544 11.5475 8C11.5475 8.99456 11.1579 9.94839 10.4643 10.6517C9.77079 11.3549 8.83016 11.75 7.84936 11.75C6.86856 11.75 5.92793 11.3549 5.2344 10.6517C4.54087 9.94839 4.15125 8.99456 4.15125 8C4.15125 7.00544 4.54087 6.05161 5.2344 5.34835C5.92793 4.64509 6.86856 4.25 7.84936 4.25ZM2.91855 7.375C3.07564 7.37518 3.22674 7.43617 3.34097 7.54553C3.45521 7.65489 3.52395 7.80435 3.53315 7.96337C3.54236 8.1224 3.49134 8.27899 3.39051 8.40114C3.28968 8.5233 3.14665 8.60181 2.99066 8.62063L2.91855 8.625H2.30219C2.1451 8.62482 1.994 8.56383 1.87976 8.45447C1.76553 8.34511 1.69679 8.19565 1.68758 8.03663C1.67838 7.8776 1.7294 7.72101 1.83023 7.59886C1.93106 7.4767 2.07408 7.39819 2.23008 7.37937L2.30219 7.375H2.91855ZM13.3965 7.375C13.56 7.375 13.7168 7.44085 13.8324 7.55806C13.9479 7.67527 14.0129 7.83424 14.0129 8C14.0129 8.16576 13.9479 8.32473 13.8324 8.44194C13.7168 8.55915 13.56 8.625 13.3965 8.625H12.7802C12.6167 8.625 12.4599 8.55915 12.3444 8.44194C12.2288 8.32473 12.1638 8.16576 12.1638 8C12.1638 7.83424 12.2288 7.67527 12.3444 7.55806C12.4599 7.44085 12.6167 7.375 12.7802 7.375H13.3965ZM3.49114 3.58062C3.59727 3.47301 3.73847 3.40837 3.88826 3.39882C4.03805 3.38927 4.18613 3.43547 4.30472 3.52875L4.36266 3.58062L4.79842 4.0225C4.90896 4.13497 4.97314 4.2859 4.97792 4.44461C4.9827 4.60333 4.92772 4.75795 4.82415 4.87705C4.72058 4.99615 4.57619 5.07082 4.4203 5.08587C4.26441 5.10093 4.10872 5.05526 3.98483 4.95812L3.9269 4.90625L3.49114 4.46438C3.37559 4.34717 3.31068 4.18823 3.31068 4.0225C3.31068 3.85677 3.37559 3.69783 3.49114 3.58062ZM12.2076 3.58062C12.3231 3.69783 12.388 3.85677 12.388 4.0225C12.388 4.18823 12.3231 4.34717 12.2076 4.46438L11.7718 4.90625C11.715 4.96594 11.647 5.01356 11.5718 5.04631C11.4966 5.07907 11.4157 5.09631 11.3338 5.09703C11.252 5.09775 11.1708 5.08194 11.0951 5.05051C11.0194 5.01909 10.9505 4.97268 10.8927 4.914C10.8348 4.85531 10.789 4.78553 10.758 4.70872C10.727 4.63191 10.7115 4.54961 10.7122 4.46662C10.7129 4.38364 10.7299 4.30162 10.7622 4.22537C10.7945 4.14912 10.8414 4.08015 10.9003 4.0225L11.3361 3.58062C11.4516 3.46346 11.6084 3.39763 11.7718 3.39763C11.9353 3.39763 12.092 3.46346 12.2076 3.58062ZM7.84936 1.75C8.01283 1.75 8.1696 1.81585 8.28519 1.93306C8.40078 2.05027 8.46571 2.20924 8.46571 2.375V3C8.46571 3.16576 8.40078 3.32473 8.28519 3.44194C8.1696 3.55915 8.01283 3.625 7.84936 3.625C7.6859 3.625 7.52912 3.55915 7.41354 3.44194C7.29795 3.32473 7.23301 3.16576 7.23301 3V2.375C7.23301 2.20924 7.29795 2.05027 7.41354 1.93306C7.52912 1.81585 7.6859 1.75 7.84936 1.75Z" fill="white"/>
</svg>
